<svg width="20" height="20" viewBox="0 0 20 20" fill="none" xmlns="http://www.w3.org/2000/svg">
<path d="M19.2857 1.42857H15V0.714286C15 0.524845 14.9247 0.343164 14.7908 0.209209C14.6568 0.0752549 14.4752 0 14.2857 0C14.0963 0 13.9146 0.0752549 13.7806 0.209209C13.6467 0.343164 13.5714 0.524845 13.5714 0.714286V1.42857H10.7143V0.714286C10.7143 0.524845 10.639 0.343164 10.5051 0.209209C10.3711 0.0752549 10.1894 0 10 0C9.81056 0 9.62888 0.0752549 9.49492 0.209209C9.36097 0.343164 9.28571 0.524845 9.28571 0.714286V1.42857H6.42857V0.714286C6.42857 0.524845 6.35332 0.343164 6.21936 0.209209C6.08541 0.0752549 5.90373 0 5.71429 0C5.52485 0 5.34316 0.0752549 5.20921 0.209209C5.07525 0.343164 5 0.524845 5 0.714286V1.42857H0.714286C0.524845 1.42857 0.343164 1.50383 0.209209 1.63778C0.0752549 1.77174 0 1.95342 0 2.14286L0 19.2857C0 19.4752 0.0752549 19.6568 0.209209 19.7908C0.343164 19.9247 0.524845 20 0.714286 20H19.2857C19.4752 20 19.6568 19.9247 19.7908 19.7908C19.9247 19.6568 20 19.4752 20 19.2857V2.14286C20 1.95342 19.9247 1.77174 19.7908 1.63778C19.6568 1.50383 19.4752 1.42857 19.2857 1.42857ZM5 2.85714V3.57143C5 3.76087 5.07525 3.94255 5.20921 4.0765C5.34316 4.21046 5.52485 4.28571 5.71429 4.28571C5.90373 4.28571 6.08541 4.21046 6.21936 4.0765C6.35332 3.94255 6.42857 3.76087 6.42857 3.57143V2.85714H9.28571V3.57143C9.28571 3.76087 9.36097 3.94255 9.49492 4.0765C9.62888 4.21046 9.81056 4.28571 10 4.28571C10.1894 4.28571 10.3711 4.21046 10.5051 4.0765C10.639 3.94255 10.7143 3.76087 10.7143 3.57143V2.85714H13.5714V3.57143C13.5714 3.76087 13.6467 3.94255 13.7806 4.0765C13.9146 4.21046 14.0963 4.28571 14.2857 4.28571C14.4752 4.28571 14.6568 4.21046 14.7908 4.0765C14.9247 3.94255 15 3.76087 15 3.57143V2.85714H18.5714V5.71429H1.42857V2.85714H5ZM1.42857 18.5714V7.14286H18.5714V18.5714H1.42857ZM12.1429 10C12.1429 10.1894 12.0676 10.3711 11.9336 10.5051C11.7997 10.639 11.618 10.7143 11.4286 10.7143H8.57143C8.38199 10.7143 8.20031 10.639 8.06635 10.5051C7.9324 10.3711 7.85714 10.1894 7.85714 10C7.85714 9.81056 7.9324 9.62888 8.06635 9.49492C8.20031 9.36097 8.38199 9.28571 8.57143 9.28571H11.4286C11.618 9.28571 11.7997 9.36097 11.9336 9.49492C12.0676 9.62888 12.1429 9.81056 12.1429 10ZM17.1429 10C17.1429 10.1894 17.0676 10.3711 16.9336 10.5051C16.7997 10.639 16.618 10.7143 16.4286 10.7143H13.5714C13.382 10.7143 13.2003 10.639 13.0664 10.5051C12.9324 10.3711 12.8571 10.1894 12.8571 10C12.8571 9.81056 12.9324 9.62888 13.0664 9.49492C13.2003 9.36097 13.382 9.28571 13.5714 9.28571H16.4286C16.618 9.28571 16.7997 9.36097 16.9336 9.49492C17.0676 9.62888 17.1429 9.81056 17.1429 10ZM7.14286 10C7.14286 10.1894 7.0676 10.3711 6.93365 10.5051C6.79969 10.639 6.61801 10.7143 6.42857 10.7143H3.57143C3.38199 10.7143 3.20031 10.639 3.06635 10.5051C2.9324 10.3711 2.85714 10.1894 2.85714 10C2.85714 9.81056 2.9324 9.62888 3.06635 9.49492C3.20031 9.36097 3.38199 9.28571 3.57143 9.28571H6.42857C6.61801 9.28571 6.79969 9.36097 6.93365 9.49492C7.0676 9.62888 7.14286 9.81056 7.14286 10ZM12.1429 12.8571C12.1429 13.0466 12.0676 13.2283 11.9336 13.3622C11.7997 13.4962 11.618 13.5714 11.4286 13.5714H8.57143C8.38199 13.5714 8.20031 13.4962 8.06635 13.3622C7.9324 13.2283 7.85714 13.0466 7.85714 12.8571C7.85714 12.6677 7.9324 12.486 8.06635 12.3521C8.20031 12.2181 8.38199 12.1429 8.57143 12.1429H11.4286C11.618 12.1429 11.7997 12.2181 11.9336 12.3521C12.0676 12.486 12.1429 12.6677 12.1429 12.8571ZM17.1429 12.8571C17.1429 13.0466 17.0676 13.2283 16.9336 13.3622C16.7997 13.4962 16.618 13.5714 16.4286 13.5714H13.5714C13.382 13.5714 13.2003 13.4962 13.0664 13.3622C12.9324 13.2283 12.8571 13.0466 12.8571 12.8571C12.8571 12.6677 12.9324 12.486 13.0664 12.3521C13.2003 12.2181 13.382 12.1429 13.5714 12.1429H16.4286C16.618 12.1429 16.7997 12.2181 16.9336 12.3521C17.0676 12.486 17.1429 12.6677 17.1429 12.8571ZM7.14286 12.8571C7.14286 13.0466 7.0676 13.2283 6.93365 13.3622C6.79969 13.4962 6.61801 13.5714 6.42857 13.5714H3.57143C3.38199 13.5714 3.20031 13.4962 3.06635 13.3622C2.9324 13.2283 2.85714 13.0466 2.85714 12.8571C2.85714 12.6677 2.9324 12.486 3.06635 12.3521C3.20031 12.2181 3.38199 12.1429 3.57143 12.1429H6.42857C6.61801 12.1429 6.79969 12.2181 6.93365 12.3521C7.0676 12.486 7.14286 12.6677 7.14286 12.8571ZM12.1429 15.7143C12.1429 15.9037 12.0676 16.0854 11.9336 16.2194C11.7997 16.3533 11.618 16.4286 11.4286 16.4286H8.57143C8.38199 16.4286 8.20031 16.3533 8.06635 16.2194C7.9324 16.0854 7.85714 15.9037 7.85714 15.7143C7.85714 15.5248 7.9324 15.3432 8.06635 15.2092C8.20031 15.0753 8.38199 15 8.57143 15H11.4286C11.618 15 11.7997 15.0753 11.9336 15.2092C12.0676 15.3432 12.1429 15.5248 12.1429 15.7143ZM17.1429 15.7143C17.1429 15.9037 17.0676 16.0854 16.9336 16.2194C16.7997 16.3533 16.618 16.4286 16.4286 16.4286H13.5714C13.382 16.4286 13.2003 16.3533 13.0664 16.2194C12.9324 16.0854 12.8571 15.9037 12.8571 15.7143C12.8571 15.5248 12.9324 15.3432 13.0664 15.2092C13.2003 15.0753 13.382 15 13.5714 15H16.4286C16.618 15 16.7997 15.0753 16.9336 15.2092C17.0676 15.3432 17.1429 15.5248 17.1429 15.7143ZM7.14286 15.7143C7.14286 15.9037 7.0676 16.0854 6.93365 16.2194C6.79969 16.3533 6.61801 16.4286 6.42857 16.4286H3.57143C3.38199 16.4286 3.20031 16.3533 3.06635 16.2194C2.9324 16.0854 2.85714 15.9037 2.85714 15.7143C2.85714 15.5248 2.9324 15.3432 3.06635 15.2092C3.20031 15.0753 3.38199 15 3.57143 15H6.42857C6.61801 15 6.79969 15.0753 6.93365 15.2092C7.0676 15.3432 7.14286 15.5248 7.14286 15.7143Z" fill="black"/>
</svg>
