<svg width="20" height="20" viewBox="0 0 20 20" fill="none" xmlns="http://www.w3.org/2000/svg">
<path d="M3.82417 10.6388C3.82417 9.83184 4.4929 9.17536 5.31485 9.17536C5.55837 9.17536 5.78821 9.23339 5.99143 9.33547C6.51 9.56484 6.87211 10.0766 6.87211 10.6702C6.87211 10.7726 6.86075 10.8733 6.83982 10.971H8.30798V9.3662C8.30798 9.25438 8.37423 9.15288 8.47765 9.1062C8.58107 9.05964 8.70265 9.07627 8.7891 9.14898C8.95365 9.28753 9.16312 9.36379 9.37884 9.36379C9.87944 9.36379 10.2867 8.96399 10.2867 8.47255C10.2867 7.98122 9.87944 7.58142 9.37884 7.58142C9.16312 7.58142 8.95365 7.65769 8.7891 7.79623C8.70265 7.86894 8.58101 7.88557 8.47765 7.83889C8.37423 7.79222 8.30798 7.69072 8.30798 7.57901V5.48182H6.40061C6.29492 5.48182 6.19747 5.42562 6.14603 5.33501C6.09456 5.2443 6.09718 5.13339 6.15285 5.0452C6.24209 4.90367 6.28929 4.74196 6.28929 4.5775C6.28929 4.08606 5.88204 3.68625 5.38144 3.68625C4.88091 3.68625 4.47366 4.08606 4.47366 4.5775C4.47366 4.74196 4.52085 4.90367 4.6101 5.0452C4.66576 5.13339 4.66838 5.2443 4.61692 5.33501C4.56547 5.42562 4.46803 5.48182 4.36232 5.48182H2.45496V7.49816C2.45496 7.60413 2.39531 7.70138 2.29992 7.75093C2.20458 7.80059 2.08915 7.7944 1.99979 7.73476C1.84931 7.6344 1.67325 7.58142 1.49066 7.58142C0.990075 7.58142 0.582825 7.98122 0.582825 8.47255C0.582825 8.96399 0.990075 9.36379 1.49066 9.36379C1.67325 9.36379 1.84931 9.31081 1.99979 9.21046C2.08915 9.15093 2.20458 9.14462 2.29992 9.19428C2.39531 9.24383 2.45496 9.34109 2.45496 9.44706V10.971H3.86345C3.8375 10.8625 3.82417 10.7511 3.82417 10.6388Z" fill="black"/>
<path d="M5.99133 9.33547C6.47402 9.57792 6.8054 10.071 6.8054 10.6388C6.8054 10.7511 6.79214 10.8625 6.76613 10.971H6.83976C6.86069 10.8733 6.87206 10.7726 6.87206 10.6702C6.87206 10.0766 6.50993 9.56484 5.99133 9.33547Z" fill="black"/>
<path d="M8.8241 13.5815C8.8241 13.6523 8.79697 13.719 8.75082 13.7704C8.72402 13.8388 8.67152 13.8963 8.60115 13.9281C8.49779 13.9747 8.37615 13.9581 8.28976 13.8854C8.1251 13.7468 7.91563 13.6705 7.69987 13.6705C7.65381 13.6705 7.6089 13.6749 7.56467 13.6815C7.19298 13.7931 6.92181 14.1329 6.92181 14.5337C6.92181 15.0252 7.32905 15.425 7.82958 15.425C7.87203 15.425 7.91399 15.4217 7.95547 15.4159C8.07733 15.3806 8.19159 15.3206 8.28976 15.2381C8.37615 15.1655 8.49773 15.1486 8.60115 15.1954C8.61965 15.2038 8.63648 15.2144 8.65243 15.226C8.6566 15.2278 8.66092 15.2292 8.66501 15.2313C8.76263 15.28 8.8241 15.3786 8.8241 15.4861V17.5525H10.6781C10.7838 17.5525 10.8812 17.6087 10.9328 17.6993C10.9842 17.79 10.9816 17.9009 10.9259 17.9893C10.8366 18.1307 10.7894 18.2924 10.7894 18.4569C10.7894 18.9483 11.1967 19.3481 11.6973 19.3481C12.1978 19.3481 12.6051 18.9483 12.6051 18.4569C12.6051 18.2924 12.5579 18.1307 12.4686 17.9893C12.4129 17.9009 12.4103 17.79 12.4617 17.6993C12.5133 17.6087 12.6107 17.5525 12.7164 17.5525H14.6237V15.5363C14.6237 15.4303 14.6834 15.333 14.7788 15.2834C14.8742 15.2338 14.9896 15.24 15.0789 15.2995C15.2294 15.3999 15.4055 15.453 15.5881 15.453C16.0887 15.453 16.4959 15.0532 16.4959 14.5617C16.4959 14.0703 16.0887 13.6705 15.5881 13.6705C15.4055 13.6705 15.2294 13.7236 15.0789 13.8239C14.9896 13.8834 14.8742 13.8896 14.7788 13.8401C14.6834 13.7904 14.6237 13.6932 14.6237 13.5872V11.5709H12.9497C13.1021 11.8027 13.1879 12.0766 13.1879 12.364C13.1879 13.171 12.5192 13.8275 11.6973 13.8275C10.8753 13.8275 10.2066 13.171 10.2066 12.364C10.2066 12.0766 10.2923 11.8027 10.4448 11.5709H8.8241V13.5815Z" fill="black"/>
<path d="M15.5879 13.0985C15.4579 13.0985 15.3299 13.1149 15.2064 13.147V11.2851C15.2064 11.1271 15.076 10.999 14.915 10.999H12.1758C12.0378 10.999 11.9186 11.0941 11.8905 11.2267C11.8623 11.3593 11.9328 11.4932 12.0593 11.5473C12.3907 11.6893 12.605 12.01 12.605 12.3643C12.605 12.8557 12.1977 13.2555 11.6971 13.2555C11.1966 13.2555 10.7893 12.8557 10.7893 12.3643C10.7893 12.01 11.0036 11.6893 11.3351 11.5473C11.4615 11.4932 11.532 11.3593 11.5038 11.2267C11.4756 11.0941 11.3566 10.999 11.2185 10.999H8.89067V9.85496C9.04656 9.90817 9.21145 9.93604 9.37868 9.93604C10.2006 9.93604 10.8693 9.27956 10.8693 8.4726C10.8693 7.66575 10.2006 7.00927 9.37868 7.00927C9.21145 7.00927 9.04656 7.03702 8.89067 7.09035V5.19579C8.89067 5.03775 8.76021 4.90975 8.59925 4.90975H6.83272C6.85874 4.80125 6.872 4.68978 6.872 4.5775C6.872 3.77054 6.20328 3.11405 5.38136 3.11405C4.55943 3.11405 3.89076 3.77054 3.89076 4.5775C3.89076 4.68978 3.90402 4.80125 3.93004 4.90975H2.16352C2.00256 4.90975 1.8721 5.03775 1.8721 5.19579V7.05767C1.74866 7.02567 1.62064 7.00927 1.49064 7.00927C0.668715 7.00927 0 7.66575 0 8.4726C0 9.27956 0.668715 9.93604 1.49064 9.93604C1.62064 9.93604 1.74866 9.91964 1.8721 9.88764V11.0772C1.92554 11.013 2.00584 10.9711 2.09693 10.9711H2.45493V9.44712C2.45493 9.34115 2.39528 9.24389 2.2999 9.19434C2.20456 9.14468 2.08912 9.15099 1.99977 9.21051C1.84929 9.31087 1.67324 9.36386 1.49064 9.36386C0.99007 9.36386 0.582827 8.96405 0.582827 8.4726C0.582827 7.98127 0.99007 7.58146 1.49064 7.58146C1.67324 7.58146 1.84929 7.63444 1.99977 7.7348C2.08912 7.79444 2.20456 7.80063 2.2999 7.75097C2.39528 7.70142 2.45493 7.60417 2.45493 7.49819V5.48183H4.36226C4.46796 5.48183 4.5654 5.42563 4.61685 5.33502C4.66831 5.2443 4.66569 5.1334 4.61002 5.0452C4.52078 4.90367 4.47359 4.74196 4.47359 4.5775C4.47359 4.08605 4.88083 3.68624 5.38136 3.68624C5.88194 3.68624 6.28918 4.08605 6.28918 4.5775C6.28918 4.74196 6.24199 4.90367 6.15275 5.0452C6.09708 5.1334 6.09446 5.2443 6.14592 5.33502C6.19737 5.42563 6.29481 5.48183 6.4005 5.48183H8.30784V7.57905C8.30784 7.69076 8.37409 7.79226 8.4775 7.83894C8.58087 7.88561 8.7025 7.86899 8.78895 7.79627C8.95349 7.65773 9.16296 7.58146 9.37868 7.58146C9.87927 7.58146 10.2865 7.98127 10.2865 8.4726C10.2865 8.96405 9.87927 9.36386 9.37868 9.36386C9.16296 9.36386 8.95349 9.28759 8.78895 9.14904C8.7025 9.07633 8.58092 9.0597 8.4775 9.10626C8.37409 9.15294 8.30784 9.25444 8.30784 9.36626V10.9711H8.53261C8.69356 10.9711 8.82402 11.0992 8.82402 11.2572V11.5712H10.4447C10.2922 11.803 10.2065 12.0768 10.2065 12.3643C10.2065 13.1712 10.8752 13.8277 11.6971 13.8277C12.5191 13.8277 13.1878 13.1712 13.1878 12.3643C13.1878 12.0768 13.1019 11.803 12.9496 11.5712H14.6235V13.5874C14.6235 13.6934 14.6832 13.7907 14.7787 13.8403C14.874 13.8899 14.9894 13.8837 15.0788 13.8242C15.2293 13.7238 15.4053 13.6707 15.5879 13.6707C16.0885 13.6707 16.4957 14.0705 16.4957 14.562C16.4957 15.0534 16.0885 15.4532 15.5879 15.4532C15.4053 15.4532 15.2293 15.4001 15.0788 15.2998C14.9894 15.2402 14.874 15.234 14.7787 15.2836C14.6832 15.3332 14.6235 15.4305 14.6235 15.5365V17.5527H12.7163C12.6106 17.5527 12.5131 17.6089 12.4616 17.6995C12.4102 17.7902 12.4128 17.9012 12.4685 17.9895C12.5578 18.1309 12.605 18.2926 12.605 18.4571C12.605 18.9485 12.1977 19.3483 11.6971 19.3483C11.1966 19.3483 10.7893 18.9485 10.7893 18.4571C10.7893 18.2926 10.8365 18.1309 10.9258 17.9895C10.9815 17.9012 10.9841 17.7902 10.9327 17.6995C10.8811 17.6089 10.7837 17.5527 10.678 17.5527H8.82402V17.8109C8.82402 17.9688 8.69356 18.0969 8.53261 18.0969H8.35564C8.39332 18.1144 8.43493 18.1249 8.47932 18.1249H10.2457C10.2198 18.2334 10.2065 18.3448 10.2065 18.4571C10.2065 19.264 10.8752 19.9205 11.6971 19.9205C12.5191 19.9205 13.1878 19.264 13.1878 18.4571C13.1878 18.3448 13.1745 18.2334 13.1484 18.1249H14.915C15.076 18.1249 15.2064 17.9968 15.2064 17.8388V15.9769C15.3299 16.009 15.4579 16.0253 15.5879 16.0253C16.4098 16.0253 17.0786 15.3689 17.0786 14.562C17.0786 13.755 16.4098 13.0985 15.5879 13.0985Z" fill="black"/>
<path d="M8.28974 13.8855C8.37613 13.9582 8.49777 13.9748 8.60114 13.9282C8.6715 13.8964 8.724 13.839 8.7508 13.7705C8.72692 13.7971 8.69827 13.8198 8.66499 13.8365C8.56727 13.8854 8.45001 13.8762 8.36146 13.8132C8.20504 13.7018 8.02113 13.6428 7.82955 13.6428C7.7374 13.6428 7.64849 13.6566 7.56464 13.6817C7.60887 13.6752 7.65377 13.6707 7.69984 13.6707C7.9156 13.6707 8.12507 13.747 8.28974 13.8855Z" fill="black"/>
<path d="M8.28975 15.2381C8.19158 15.3207 8.07731 15.3807 7.95544 15.416C8.10119 15.3959 8.2397 15.3414 8.36147 15.2546C8.44637 15.1942 8.55738 15.1839 8.65243 15.2261C8.63648 15.2145 8.61965 15.2038 8.60115 15.1954C8.49773 15.1486 8.37614 15.1655 8.28975 15.2381Z" fill="black"/>
<path d="M17.5061 2.58879C17.4038 2.56298 17.3236 2.48477 17.2968 2.3843C17.2699 2.28395 17.3006 2.17706 17.3769 2.10526C17.4991 1.99 17.5858 1.84492 17.6275 1.68562C17.7519 1.20966 17.4587 0.723036 16.974 0.600778C16.7389 0.541598 16.4947 0.575662 16.286 0.696888C16.0774 0.818113 15.9291 1.01182 15.8689 1.24235C15.8272 1.40165 15.8319 1.56978 15.8825 1.72863C15.9142 1.8276 15.8886 1.93575 15.8158 2.01099C15.743 2.08622 15.6342 2.11696 15.532 2.09116L13.6846 1.62552L13.2736 3.19698C13.4512 3.17714 13.6324 3.18918 13.8091 3.2338C14.6053 3.4345 15.0866 4.23354 14.8823 5.01514C14.7832 5.39373 14.54 5.71176 14.1972 5.91074C13.8544 6.10973 13.4533 6.16581 13.0677 6.06855C12.891 6.02405 12.7264 5.94882 12.5804 5.84766L12.1694 7.41901L14.0908 7.90334C14.1988 7.93052 14.2815 8.01596 14.3039 8.12331C14.3261 8.23055 14.284 8.34099 14.1954 8.40751C14.0322 8.53023 13.919 8.6979 13.8682 8.89219C13.7438 9.36814 14.037 9.85477 14.5217 9.97703C15.0066 10.0991 15.5024 9.81142 15.6268 9.33534C15.6777 9.14118 15.6608 8.94081 15.5779 8.75594C15.533 8.6557 15.5503 8.53906 15.6224 8.45557C15.6946 8.37219 15.8091 8.33652 15.9171 8.3637L17.8385 8.84792L18.2398 7.3135C18.102 7.3174 17.9629 7.30249 17.8266 7.26808C17.4409 7.17094 17.1169 6.93204 16.9143 6.59566C16.7116 6.25917 16.6545 5.86533 16.7535 5.48674C16.958 4.70514 17.772 4.23251 18.5679 4.43332C18.7044 4.46762 18.8333 4.52003 18.9523 4.58884L19.3536 3.05442L17.5061 2.58879Z" fill="#F7F3F3"/>
<path d="M18.568 4.43335C17.7721 4.23253 16.9581 4.70516 16.7536 5.48677C16.6546 5.86535 16.7117 6.25919 16.9144 6.59569C17.117 6.93207 17.441 7.17097 17.8267 7.26811C17.963 7.30252 18.1021 7.31742 18.2399 7.31352L17.8386 8.84794L15.9172 8.36373C15.8092 8.33655 15.6947 8.37221 15.6225 8.45559C15.5503 8.53909 15.533 8.65573 15.578 8.75596C15.6609 8.94084 15.6778 9.1412 15.6269 9.33537C15.5024 9.81144 15.0066 10.0991 14.5218 9.97705C14.0371 9.85479 13.7439 9.36817 13.8683 8.89221C13.9191 8.69793 14.0323 8.53026 14.1955 8.40754C14.2841 8.34102 14.3261 8.23057 14.3039 8.12334C14.2816 8.01599 14.1989 7.93055 14.0908 7.90337L12.1694 7.41904L12.5804 5.84769C12.7264 5.94885 12.8911 6.02408 13.0678 6.06858C13.4533 6.16584 13.8545 6.10975 14.1973 5.91077C14.54 5.71178 14.7833 5.39375 14.8823 5.01517C15.0867 4.23356 14.6053 3.43453 13.8092 3.23382C13.6324 3.18921 13.4512 3.17717 13.2737 3.19701L13.6846 1.62555L15.5321 2.09118C15.6343 2.11699 15.7431 2.08625 15.8159 2.01101C15.8887 1.93578 15.9142 1.82763 15.8826 1.72865C15.832 1.56981 15.8273 1.40167 15.869 1.24237C15.9292 1.01185 16.0774 0.818139 16.2861 0.696914C16.4947 0.575687 16.739 0.541624 16.9741 0.600803C17.4588 0.723062 17.752 1.20969 17.6276 1.68564C17.5859 1.84495 17.4992 1.99003 17.377 2.10529C17.3007 2.17708 17.27 2.28397 17.2969 2.38433C17.3237 2.48479 17.4039 2.56301 17.5062 2.58882L19.3537 3.05445L18.9524 4.58887C18.8335 4.52006 18.7045 4.46764 18.568 4.43335ZM19.9593 2.70282C19.9199 2.63756 19.8558 2.59031 19.7809 2.57138L18.0699 2.14015C18.1225 2.04141 18.1636 1.9367 18.1921 1.82797C18.3964 1.04637 17.9151 0.247334 17.1189 0.046629C16.7333 -0.0506268 16.3322 0.00545597 15.9894 0.20444C15.6467 0.403425 15.4035 0.721457 15.3044 1.10004C15.276 1.20888 15.2606 1.32002 15.2583 1.43149L13.5473 1.00015C13.3915 0.96081 13.2325 1.05302 13.1926 1.20613L12.5798 3.5491C12.5509 3.65955 12.5916 3.7763 12.6835 3.84626C12.775 3.91611 12.9004 3.92585 13.0023 3.87092C13.2059 3.76116 13.4408 3.73169 13.6643 3.788C14.149 3.91026 14.4423 4.39688 14.3178 4.87284C14.2574 5.10336 14.1093 5.29719 13.9005 5.4183C13.6919 5.53952 13.4476 5.57358 13.2128 5.51441C12.9895 5.45821 12.7979 5.32116 12.6734 5.12871C12.6111 5.03237 12.4964 4.98156 12.3818 4.99957C12.2671 5.01746 12.1741 5.10049 12.1452 5.21094L11.5325 7.55391C11.4924 7.70691 11.5864 7.86288 11.7423 7.90211L13.4816 8.34056C13.4022 8.46569 13.3421 8.6032 13.3038 8.74988C13.0995 9.53149 13.5808 10.3305 14.3769 10.5312C14.5008 10.5624 14.6251 10.5773 14.7474 10.5773C15.4114 10.5773 16.0188 10.1377 16.1915 9.47781C16.2298 9.33101 16.2447 9.18226 16.2366 9.03489L17.9759 9.47334C18.0506 9.49215 18.1302 9.48102 18.1967 9.44249C18.2632 9.40384 18.3115 9.34087 18.3306 9.26736L18.9194 7.01591C18.9467 6.91166 18.9121 6.80133 18.8298 6.7301C18.7477 6.659 18.6318 6.63904 18.5299 6.67872C18.3503 6.74845 18.1572 6.76073 17.9716 6.71393C17.7368 6.65475 17.5395 6.50933 17.416 6.30438C17.2925 6.09943 17.2578 5.85962 17.3181 5.62909C17.4425 5.15314 17.9378 4.86515 18.4232 4.98753C18.6087 5.03432 18.7719 5.13628 18.8951 5.28239C18.9649 5.3652 19.0763 5.40258 19.1832 5.37919C19.2901 5.35568 19.3746 5.27528 19.4018 5.17114L19.9907 2.91969C20.01 2.84618 19.9987 2.76819 19.9593 2.70282Z" fill="black"/>
<path d="M6.0284 17.9873C5.95952 17.9012 5.94671 17.7841 5.99549 17.6856C6.04427 17.5871 6.14604 17.5246 6.25759 17.5246H8.24128V15.9404C8.10861 15.978 7.9704 15.9973 7.8296 15.9973C7.00765 15.9973 6.33899 15.3408 6.33899 14.5338C6.33899 13.727 7.00765 13.0705 7.8296 13.0705C7.9704 13.0705 8.10861 13.0898 8.24128 13.1273V11.5432H6.33392C6.22818 11.5432 6.13078 11.487 6.07933 11.3963C6.02788 11.3056 6.0305 11.1947 6.08617 11.1065C6.17541 10.965 6.22259 10.8032 6.22259 10.6388C6.22259 10.1473 5.81536 9.74754 5.31482 9.74754C4.81423 9.74754 4.40699 10.1473 4.40699 10.6388C4.40699 10.8032 4.45417 10.965 4.54347 11.1065C4.59914 11.1947 4.60176 11.3056 4.55031 11.3963C4.49886 11.487 4.40147 11.5432 4.29572 11.5432H2.38837V13.1656C2.55541 13.1031 2.73385 13.0705 2.91639 13.0705C3.73832 13.0705 4.40699 13.727 4.40699 14.5338C4.40699 15.3408 3.73832 15.9973 2.91639 15.9973C2.73391 15.9973 2.55541 15.9646 2.38837 15.9022V17.5246H4.37199C4.48354 17.5246 4.58531 17.5871 4.63409 17.6856C4.68287 17.7841 4.67006 17.9012 4.6012 17.9873C4.47415 18.1462 4.40699 18.3361 4.40699 18.5367C4.40699 19.0281 4.81423 19.4278 5.31482 19.4278C5.81536 19.4278 6.22259 19.0281 6.22259 18.5367C6.22259 18.3361 6.15543 18.1462 6.0284 17.9873Z" fill="#F7F3F3"/>
<path d="M5.3148 19.4278C4.81421 19.4278 4.40697 19.0281 4.40697 18.5367C4.40697 18.3361 4.47413 18.1462 4.60117 17.9873C4.67004 17.9012 4.68284 17.7841 4.63407 17.6856C4.58529 17.5871 4.48352 17.5246 4.37197 17.5246H2.38837V15.9022C2.55541 15.9646 2.73391 15.9973 2.91638 15.9973C3.73831 15.9973 4.40697 15.3408 4.40697 14.5338C4.40697 13.727 3.73831 13.0705 2.91638 13.0705C2.73385 13.0705 2.55541 13.1031 2.38837 13.1656V11.5432H4.29571C4.40145 11.5432 4.49884 11.487 4.55029 11.3963C4.60173 11.3056 4.59912 11.1947 4.54345 11.1065C4.45415 10.965 4.40697 10.8032 4.40697 10.6388C4.40697 10.1473 4.81421 9.74753 5.3148 9.74753C5.81532 9.74753 6.22255 10.1473 6.22255 10.6388C6.22255 10.8032 6.17537 10.965 6.08613 11.1065C6.03046 11.1947 6.02784 11.3056 6.07929 11.3963C6.13074 11.487 6.22814 11.5432 6.33388 11.5432H8.24122V13.1273C8.10855 13.0898 7.97035 13.0705 7.82954 13.0705C7.0076 13.0705 6.33895 13.727 6.33895 14.5338C6.33895 15.3408 7.0076 15.9973 7.82954 15.9973C7.97035 15.9973 8.10855 15.978 8.24122 15.9404V17.5246H6.25755C6.146 17.5246 6.04424 17.5871 5.99545 17.6856C5.94668 17.7841 5.95948 17.9012 6.02836 17.9873C6.15539 18.1462 6.22255 18.3361 6.22255 18.5367C6.22255 19.0281 5.81532 19.4278 5.3148 19.4278ZM8.82405 17.8107V15.4862C8.82405 15.3786 8.76258 15.2801 8.66496 15.2314C8.66087 15.2293 8.65655 15.2279 8.65238 15.2261C8.55733 15.1839 8.44633 15.1942 8.36143 15.2546C8.23967 15.3415 8.10116 15.3959 7.95543 15.416C7.91394 15.4217 7.87199 15.4251 7.82954 15.4251C7.32901 15.4251 6.92178 15.0253 6.92178 14.5338C6.92178 14.133 7.19295 13.7932 7.56463 13.6816C7.64849 13.6565 7.73739 13.6427 7.82954 13.6427C8.02112 13.6427 8.20502 13.7016 8.36143 13.8131C8.44998 13.8762 8.56724 13.8854 8.66496 13.8364C8.69823 13.8198 8.72689 13.7971 8.75077 13.7705C8.79692 13.7191 8.82405 13.6524 8.82405 13.5816V11.5711V11.2571C8.82405 11.0991 8.69359 10.971 8.53264 10.971H8.30787H6.83974H6.7661C6.79212 10.8625 6.80538 10.7511 6.80538 10.6388C6.80538 10.071 6.47401 9.57791 5.99136 9.33546C5.78815 9.23338 5.55831 9.17535 5.3148 9.17535C4.49286 9.17535 3.82414 9.83183 3.82414 10.6388C3.82414 10.7511 3.83747 10.8625 3.86342 10.971H2.45496H2.09696C2.00587 10.971 1.92557 11.0129 1.87213 11.0771C1.83114 11.1264 1.80554 11.1885 1.80554 11.2571V13.676C1.80554 13.7901 1.87453 13.8932 1.98118 13.9385C2.0878 13.9838 2.21164 13.9627 2.29634 13.8846C2.46572 13.7286 2.68593 13.6427 2.91638 13.6427C3.41691 13.6427 3.82414 14.0425 3.82414 14.5338C3.82414 15.0253 3.41691 15.4251 2.91638 15.4251C2.68593 15.4251 2.46572 15.3392 2.29634 15.1832C2.21164 15.1051 2.08774 15.084 1.98113 15.1293C1.87453 15.1746 1.80554 15.2777 1.80554 15.3918V17.8107C1.80554 17.9686 1.936 18.0967 2.09696 18.0967H3.89267C3.84737 18.2375 3.82414 18.3852 3.82414 18.5367C3.82414 19.3435 4.49286 20 5.3148 20C6.13672 20 6.80538 19.3435 6.80538 18.5367C6.80538 18.3852 6.78216 18.2375 6.73685 18.0967H8.35567H8.53264C8.69359 18.0967 8.82405 17.9686 8.82405 17.8107Z" fill="black"/>
</svg>
