<svg width="20" height="20" viewBox="0 0 20 20" fill="none" xmlns="http://www.w3.org/2000/svg">
<g clip-path="url(#clip0_11_154)">
<path fill-rule="evenodd" clip-rule="evenodd" d="M5.28621 11.6535C4.59922 11.6535 3.97694 11.3084 3.52657 10.7499C3.07628 10.1917 2.79773 9.42016 2.79773 8.56845C2.79773 7.71643 3.07628 6.94524 3.52657 6.38698C3.97694 5.82862 4.59904 5.48329 5.28621 5.48329C5.97333 5.48329 6.59554 5.82862 7.04579 6.38698C7.49614 6.94524 7.7747 7.71643 7.7747 8.56845C7.7747 9.42016 7.49614 10.1917 7.04579 10.7499C6.59554 11.3084 5.97333 11.6535 5.28621 11.6535ZM6.04975 20C5.99653 20.0006 5.95311 19.9477 5.95273 19.8817C5.95242 19.8158 5.9951 19.762 6.04825 19.7614H6.05099L6.08249 19.761L6.114 19.7605L6.14557 19.7595L6.177 19.7582L6.20838 19.7568L6.23696 19.7552C6.28999 19.7521 6.33497 19.8032 6.33746 19.8689C6.3399 19.9347 6.29878 19.9906 6.24588 19.9937L6.21613 19.9952L6.18357 19.9967L6.15081 19.9979L6.11812 19.9989L6.0853 19.9996L6.0525 20H6.04975ZM7.21554 19.82C7.16407 19.8358 7.11179 19.797 7.09887 19.7332C7.08602 19.6694 7.11727 19.6044 7.16887 19.5886L7.18553 19.5835L7.21522 19.5741L7.24461 19.5646L7.27406 19.5548L7.30351 19.5449L7.3327 19.5346L7.35116 19.528C7.40212 19.5097 7.45566 19.546 7.47051 19.6093C7.48523 19.6723 7.45602 19.7388 7.40506 19.757L7.38542 19.7641L7.3549 19.7747L7.32433 19.7852L7.29376 19.7953L7.263 19.8051L7.23232 19.815L7.21554 19.82ZM8.31451 19.3063C8.2676 19.3366 8.20933 19.314 8.18475 19.2556C8.16023 19.1972 8.17858 19.1251 8.22568 19.0947L8.23049 19.0915L8.25724 19.0741L8.28388 19.0564L8.31045 19.0388L8.33685 19.0206L8.3633 19.0024L8.38957 18.9841L8.39093 18.9832C8.43697 18.9501 8.49587 18.9696 8.52245 19.0267C8.54896 19.0835 8.53331 19.1566 8.48739 19.1895L8.48476 19.1914L8.45749 19.2106L8.43012 19.2294L8.40247 19.2482L8.37485 19.2668L8.34714 19.2852L8.31944 19.303L8.31451 19.3063ZM9.28691 18.4887C9.24686 18.532 9.1861 18.5269 9.1511 18.4771C9.11628 18.4275 9.12047 18.3521 9.16058 18.3087L9.1793 18.2886L9.20238 18.2637L9.22522 18.2385L9.24799 18.2134L9.27051 18.1879L9.29316 18.1622L9.30132 18.1527C9.34006 18.1077 9.40107 18.1101 9.43732 18.1583C9.47358 18.2063 9.47158 18.2818 9.4329 18.3267L9.42384 18.3371L9.40045 18.3638L9.377 18.3905L9.35322 18.4166L9.32959 18.4427L9.30576 18.4686L9.28691 18.4887ZM10.0849 17.4227C10.0534 17.4758 9.99305 17.4867 9.95025 17.4474C9.90764 17.4085 9.89867 17.3336 9.93029 17.2806L9.93291 17.2764L9.9515 17.245L9.97002 17.2136L9.9885 17.1816L10.0066 17.1499L10.0248 17.1178L10.0403 17.0901C10.0705 17.0358 10.1304 17.0221 10.1742 17.0594C10.2178 17.0967 10.2289 17.1709 10.199 17.2253L10.1828 17.2542L10.1641 17.2873L10.145 17.3203L10.126 17.3532L10.1068 17.386L10.0874 17.4184L10.0849 17.4227ZM10.6818 16.171C10.6597 16.2309 10.6027 16.2574 10.5543 16.2301C10.5059 16.2028 10.4845 16.1321 10.5065 16.0721L10.5166 16.0448L10.5303 16.0075L10.5437 15.9704L10.5568 15.9333L10.5697 15.8955L10.5828 15.8576V15.8575C10.6032 15.7965 10.6597 15.7678 10.7087 15.7929C10.7576 15.8183 10.781 15.888 10.7606 15.949L10.7601 15.9505L10.7467 15.9894L10.7333 16.028L10.7196 16.0669L10.7057 16.1054L10.6918 16.1437L10.6818 16.171ZM11.0693 14.8091C11.0533 14.8717 10.9992 14.9068 10.9485 14.8868C10.8978 14.867 10.8699 14.7998 10.8858 14.7372L10.8953 14.6997L10.9059 14.6583L10.9169 14.6169L10.928 14.5758L10.9392 14.5348L10.9471 14.5069C10.9646 14.4448 11.0197 14.4122 11.0697 14.434C11.1198 14.4556 11.1461 14.5239 11.1286 14.5859L11.1212 14.6123L11.1102 14.6521L11.0996 14.6918L11.089 14.7315L11.0787 14.7716L11.0693 14.8091ZM11.5187 13.5216C11.4922 13.5786 11.4333 13.5981 11.3872 13.5653C11.3413 13.5324 11.3255 13.4593 11.352 13.4022L11.3653 13.3734L11.3821 13.3375L11.3993 13.3013L11.4166 13.2653L11.434 13.2294L11.4518 13.194C11.4796 13.1379 11.539 13.1205 11.5843 13.1551C11.6295 13.1899 11.6433 13.2634 11.6154 13.3195L11.5984 13.3537L11.5816 13.3883L11.5649 13.4229L11.5484 13.4577L11.532 13.4927L11.5187 13.5216ZM12.1823 12.3851C12.1467 12.4339 12.0856 12.4371 12.0463 12.3929C12.0072 12.3484 12.0044 12.2728 12.0403 12.2243L12.0546 12.2048L12.0769 12.1746L12.0995 12.1444L12.1221 12.1146L12.1451 12.0848L12.168 12.0555L12.1744 12.0472C12.2117 12.0002 12.2727 11.9996 12.3105 12.0458C12.3483 12.092 12.3489 12.1677 12.3117 12.2144L12.306 12.2215L12.2839 12.2499L12.2619 12.2788L12.24 12.3074L12.2184 12.3364L12.1967 12.3657L12.1823 12.3851ZM13.0283 11.4534C12.9848 11.4913 12.9247 11.4783 12.8941 11.4244C12.8636 11.3706 12.8741 11.296 12.9174 11.2582L12.9436 11.2352L12.9706 11.212L12.9976 11.1889L13.0247 11.166L13.052 11.1432L13.0788 11.1213C13.1231 11.085 13.1829 11.1003 13.212 11.1551C13.2412 11.2103 13.2288 11.2844 13.1846 11.3205L13.1588 11.3415L13.1325 11.3637L13.1064 11.3857L13.0803 11.4079L13.0543 11.4306L13.0283 11.4534ZM14.0157 10.766C13.9669 10.7918 13.9103 10.7636 13.8894 10.7031C13.8685 10.6426 13.8913 10.5724 13.94 10.5465L13.9461 10.5432L13.9765 10.5273L14.007 10.5116L14.0372 10.4963L14.0678 10.4811L14.0984 10.4661L14.1215 10.4549C14.171 10.4313 14.2269 10.462 14.2459 10.5233C14.2649 10.5848 14.2401 10.654 14.1907 10.6776L14.1687 10.6882L14.1392 10.7027L14.1097 10.7175L14.0803 10.7323L14.051 10.7474L14.0218 10.7629L14.0157 10.766ZM15.0975 10.3536C15.0454 10.3659 14.9948 10.3234 14.985 10.2586C14.975 10.194 15.0093 10.1313 15.0614 10.1192L15.0816 10.1143L15.1143 10.1066L15.1471 10.0995L15.1798 10.0923L15.2126 10.0854L15.2455 10.0788L15.2545 10.077C15.3069 10.0671 15.3562 10.1119 15.3642 10.177C15.3721 10.2422 15.3361 10.303 15.2835 10.3129L15.2757 10.3144L15.2441 10.3208L15.2124 10.3274L15.1808 10.3344L15.1491 10.3413L15.1176 10.3487L15.0975 10.3536ZM16.2253 10.2342C16.1723 10.2327 16.1303 10.1778 16.1316 10.112C16.133 10.0462 16.1771 9.99413 16.2301 9.99583L16.2501 9.99638L16.2841 9.99753L16.318 9.99894L16.3522 10.0006L16.3862 10.0026L16.4202 10.0049L16.4261 10.0053C16.4791 10.0094 16.5194 10.0661 16.5162 10.132C16.5128 10.1977 16.4671 10.2476 16.4141 10.2435L16.4095 10.2431L16.3764 10.2409L16.3437 10.2391L16.3109 10.2373L16.278 10.236L16.2451 10.2348L16.2253 10.2342ZM17.0787 5.80032C16.6818 5.80032 16.3223 5.60078 16.0621 5.2781C15.8019 4.95572 15.641 4.51008 15.641 4.01793C15.641 3.52572 15.8019 3.08022 16.0621 2.7577C16.3223 2.43509 16.6818 2.23563 17.0787 2.23563C17.4755 2.23563 17.835 2.43509 18.095 2.7577C18.3552 3.08022 18.5162 3.52572 18.5162 4.01793C18.5162 4.51008 18.3552 4.95572 18.095 5.2781C17.835 5.60078 17.4755 5.80032 17.0787 5.80032ZM17.0787 -0.000762939C16.2718 -0.000762939 15.5411 0.404661 15.0124 1.0603C14.4839 1.71564 14.1567 2.62149 14.1567 3.62169C14.1567 4.40512 14.5532 5.69491 15.1402 6.96674C15.68 8.13641 16.3793 9.28529 17.0787 10.0072C17.778 9.28529 18.4772 8.13641 19.0172 6.96674C19.6042 5.69491 20.0005 4.40512 20.0005 3.62169C20.0005 2.62149 19.6734 1.7158 19.1448 1.0603C18.616 0.404661 17.8855 -0.000762939 17.0787 -0.000762939ZM5.28621 1.3082C3.82646 1.3082 2.50496 2.04165 1.54834 3.22771C0.591724 4.41363 0 6.05208 0 7.86192C0 9.27491 0.710941 11.5924 1.76376 13.8736C2.74276 15.9948 4.01549 18.0788 5.28621 19.3707C6.55688 18.0788 7.82966 15.9948 8.80874 13.8736C9.86149 11.5924 10.5724 9.27491 10.5724 7.86192C10.5724 6.05208 9.98076 4.41363 9.02408 3.22771C8.06759 2.04165 6.74591 1.3082 5.28621 1.3082Z" fill="black"/>
</g>
<defs>
<clipPath id="clip0_11_154">
<rect width="20" height="20" fill="white"/>
</clipPath>
</defs>
</svg>
