<svg width="19" height="20" viewBox="0 0 19 20" fill="none" xmlns="http://www.w3.org/2000/svg">
<path d="M13.7376 0V1.62131H15.8372L13.8908 3.57768C13.0273 2.94667 11.9916 2.60511 10.9032 2.60511C9.54237 2.60511 8.2628 3.13798 7.30022 4.10536C6.94344 4.464 6.64624 4.86651 6.41333 5.30059C5.9929 5.18753 5.55161 5.12614 5.09634 5.12614C2.28624 5.12614 0 7.4245 0 10.2495C0 12.7982 1.86194 14.9177 4.29011 15.3073V16.5127H2.38946V18.134H4.29011V20H5.90301V18.134H7.80387V16.5127H5.90301V15.3073C7.49548 15.0516 8.8443 14.0522 9.58387 12.6754C10.0092 12.7891 10.4514 12.8492 10.9032 12.8492C12.2643 12.8492 13.5439 12.3163 14.5062 11.3489C16.2985 9.54711 16.4682 6.72928 15.0269 4.72816L16.9774 2.76746V4.87819H18.5903V0H13.7376ZM5.09677 13.7513C3.1757 13.7513 1.61312 12.1805 1.61312 10.2499C1.61312 8.31881 3.17591 6.74788 5.09656 6.74788C5.36796 6.74788 5.63097 6.78225 5.88473 6.84169C5.83484 7.13158 5.80774 7.42731 5.80774 7.72758C5.80774 9.09574 6.33785 10.382 7.30043 11.3496C7.54839 11.5988 7.81785 11.8189 8.10409 12.0089C7.49936 13.0489 6.37936 13.7513 5.09677 13.7513ZM8.58022 10.2497C8.58022 10.2756 8.57678 10.3005 8.57613 10.3264C8.53097 10.2853 8.48409 10.2464 8.44065 10.2028C7.7828 9.54128 7.42043 8.6621 7.42043 7.72714C7.42043 7.70185 7.42366 7.67699 7.42409 7.65148C8.13183 8.29309 8.58022 9.21875 8.58022 10.2497ZM13.366 10.203C12.7082 10.8643 11.8338 11.2283 10.9034 11.2283C10.6344 11.2283 10.3712 11.1944 10.1155 11.1351C10.1656 10.8472 10.1931 10.5519 10.1931 10.2497C10.1931 8.46257 9.27764 6.88709 7.89398 5.97008C8.04387 5.71154 8.22473 5.46899 8.44086 5.25173C9.09893 4.59046 9.97333 4.22642 10.9034 4.22642C11.8338 4.22642 12.7084 4.59067 13.366 5.25173C14.7237 6.61687 14.7237 8.83785 13.366 10.203Z" fill="black"/>
</svg>
