<?xml version="1.0" standalone="no"?><!DOCTYPE svg PUBLIC "-//W3C//DTD SVG 1.1//EN" "http://www.w3.org/Graphics/SVG/1.1/DTD/svg11.dtd"><svg t="1649612786807" class="icon" viewBox="0 0 1024 1024" version="1.1" xmlns="http://www.w3.org/2000/svg" p-id="1631" xmlns:xlink="http://www.w3.org/1999/xlink" width="200" height="200"><defs><style type="text/css"></style></defs><path d="M470.400065 828.158706l-271.359576-271.679575L556.479931 199.039689l271.679575 271.679576z m-180.799718-271.679575l180.799718 181.119717 267.199583-266.879583-181.119717-181.119717zM192.0005 1023.9984a189.759704 189.759704 0 0 1-135.679788-56.319912 191.9997 191.9997 0 0 1 0-271.359576L144.320574 607.99905l45.439929 45.11993-88.319862 88.319862A127.9998 127.9998 0 0 0 64.0007 831.9987a127.9998 127.9998 0 0 0 218.559658 90.559859l87.999863-88.319862L416.00015 879.358626l-88.319862 88.319862A189.759704 189.759704 0 0 1 192.0005 1023.9984zM879.359426 415.99935l-45.119929-45.439929 88.319862-87.999862a127.9998 127.9998 0 0 0 0-181.119717 131.199795 131.199795 0 0 0-181.119717 0l-88.319862 88.319862L607.99985 144.639774l88.319862-88.319862a191.9997 191.9997 0 0 1 271.359576 0 191.9997 191.9997 0 0 1 0 271.359576z" fill="#2A2A3B" p-id="1632"></path><path d="M338.624271 543.87115l45.247929-45.279929 45.247929 45.279929-45.247929 45.24793zM466.656071 511.9992l45.247929-45.247929L557.183929 511.9992l-45.279929 45.247929zM498.624021 383.8074l45.247929-45.247929 45.24793 45.247929-45.24793 45.27993zM434.720121 639.871l45.247929-45.279929 45.247929 45.279929-45.247929 45.24793zM594.719871 479.80725l45.247929-45.247929 45.247929 45.247929-45.247929 45.27993z" fill="#2A2A3B" p-id="1633"></path></svg>